<?xml version="1.0" standalone="no"?><!DOCTYPE svg PUBLIC "-//W3C//DTD SVG 1.1//EN" "http://www.w3.org/Graphics/SVG/1.1/DTD/svg11.dtd"><svg class="icon" width="200px" height="200.00px" viewBox="0 0 1024 1024" version="1.1" xmlns="http://www.w3.org/2000/svg"><path fill="#979797" d="M792.09773 0.000051H82.182511a39.144093 39.144093 0 0 0-39.195261 39.041755v856.871866a39.144093 39.144093 0 0 0 39.195261 39.041755h296.267055c47.02408 0 65.086648-32.492155 40.372143-72.301442l-0.307013-0.460518c-1.944412-3.428306-30.394237-51.475761-30.394237-124.851747a299.183674 299.183674 0 0 1 299.183674-299.234843c52.447967 0 64.779636 5.116875 64.779636 5.116875 43.442268 18.216075 79.055717-5.423887 79.055717-52.550305V39.041806A39.144093 39.144093 0 0 0 792.09773 0.000051zM494.193275 376.857885h-301.895617A28.449824 28.449824 0 0 1 164.052509 355.111167a27.682293 27.682293 0 0 1 27.017099-33.51553h301.895617a28.398656 28.398656 0 0 1 28.142812 21.746718 27.682293 27.682293 0 0 1-26.914762 33.51553z m0-117.995134h-301.895617A28.449824 28.449824 0 0 1 164.052509 237.116033a27.682293 27.682293 0 0 1 27.017099-33.515531h301.895617a28.398656 28.398656 0 0 1 28.142812 21.746718 27.682293 27.682293 0 0 1-26.914762 33.515531z m214.908745-145.626259a27.733462 27.733462 0 0 1-27.631124 27.631124H191.120777a27.733462 27.733462 0 0 1-27.631124-27.631124 27.733462 27.733462 0 0 1 27.631124-27.631124h490.452456a27.733462 27.733462 0 0 1 27.631124 27.631124zM970.881338 964.172783l-107.454372-107.454373v-0.358181a229.031319 229.031319 0 1 0-49.326674 49.377843h0.358181l107.14736 107.454372a34.692412 34.692412 0 1 0 49.019661-49.07083z m-291.661867-70.305861a172.643358 172.643358 0 1 1 172.438683-172.387514 172.694527 172.694527 0 0 1-172.438683 172.643358z m0 0" /></svg>