<?xml version="1.0" standalone="no"?><!DOCTYPE svg PUBLIC "-//W3C//DTD SVG 1.1//EN" "http://www.w3.org/Graphics/SVG/1.1/DTD/svg11.dtd"><svg class="icon" width="200px" height="200.00px" viewBox="0 0 1024 1024" version="1.1" xmlns="http://www.w3.org/2000/svg"><path fill="#979797" d="M879.388473 148.541296L512 0 148.901275 147.11138a52.896901 52.896901 0 0 0-32.998066 48.737145l-2.809836 529.768958C223.926879 870.508994 512 1024 512 1024s352.889323-191.478781 400.456536-293.852782V197.588423a52.896901 52.896901 0 0 0-33.068063-49.047127z m-213.587485 508.190224a41.997539 41.997539 0 0 1-41.997539 41.997539h-70.425873v70.695858a41.997539 41.997539 0 0 1-41.99754 41.997539 41.997539 41.997539 0 0 1-41.997539-41.997539V495.61096a150.991153 150.991153 0 1 1 83.995079 0v119.13302h70.425873a41.997539 41.997539 0 0 1 41.997539 41.997539z" /></svg>