<svg height="800" viewBox="0 0 32 32" width="800" xmlns="http://www.w3.org/2000/svg"><path d="m15.544 28.08c-.002-.006-.008-.01-.012-.015l-2.873-4.489c-.204-.335-.646-.454-.992-.266l-.256.157c-.344.188-.337.673-.133 1.008l1.841 2.857c-.157-.035-.316-.063-.471-.103-3.224-.843-5.953-3.026-7.485-5.988-1.448-2.797-1.72-5.99-.766-8.992s3.118-5.452 5.915-6.899c.476-.247.662-.832.416-1.308-.246-.477-.832-.663-1.308-.416-3.258 1.686-5.763 4.54-6.874 8.036s-.794 7.215.892 10.473c1.786 3.448 4.963 5.989 8.72 6.973.043.011.087.017.13.028l-2.541 1.288c-.344.189-.458.613-.254.948l.098.256c.205.335.557.454.9.266l4.651-2.381c.006-.004.012-.003.018-.007l.312-.171c.172-.095.287-.249.332-.422.047-.172.025-.364-.076-.531zm13.015-18.055c-1.783-3.447-4.862-5.988-8.618-6.972-.267-.07-.541-.124-.814-.179l2.494-1.265c.344-.189.549-.614.345-.949l-.099-.255c-.205-.336-.648-.454-.991-.267l-4.651 2.381c-.006.003-.012.002-.018.006l-.312.171c-.173.095-.287.249-.332.422-.047.172-.025.364.077.53l.185.304c.003.006.008.01.012.016l2.873 4.489c.203.335.646.454.991.266l.226-.157c.344-.188.366-.673.163-1.008l-1.85-2.87c.407.063.811.138 1.207.242 3.226.845 5.856 3.027 7.387 5.986 1.448 2.797 1.72 5.99.765 8.991s-3.02 5.451-5.818 6.901c-.476.247-.662.831-.415 1.308.172.332.511.524.863.524.15 0 .302-.035.446-.109 3.259-1.686 5.664-4.54 6.776-8.035 1.111-3.497.794-7.217-.893-10.473z"/></svg>