<?xml version="1.0" standalone="no"?><!DOCTYPE svg PUBLIC "-//W3C//DTD SVG 1.1//EN" "http://www.w3.org/Graphics/SVG/1.1/DTD/svg11.dtd"><svg class="icon" width="200px" height="200.00px" viewBox="0 0 1024 1024" version="1.1" xmlns="http://www.w3.org/2000/svg"><path fill="#979797" d="M0 0h1024v1024H0V0z m796.668928 227.330048H227.331072c-15.706112 0-29.01504 5.629952-39.94112 16.896-10.919936 11.264-16.37888 24.743936-16.37888 40.443904 0 15.705088 5.45792 29.01504 16.37888 39.94112 10.92608 10.918912 24.235008 16.37888 39.94112 16.37888h569.33888c15.705088 0 29.01504-5.459968 39.939072-16.37888 10.919936-10.92608 16.380928-24.236032 16.380928-39.94112 0-15.699968-5.460992-29.17888-16.380928-40.444928-10.924032-11.265024-24.233984-16.894976-39.940096-16.894976z m0 227.324928H227.331072c-15.706112 0-29.01504 5.635072-39.94112 16.894976-10.919936 11.264-16.37888 24.75008-16.37888 40.450048 0 15.700992 5.45792 29.185024 16.37888 40.451072C198.316032 563.709952 211.62496 569.344 227.331072 569.344h569.33888c15.705088 0 29.01504-5.635072 39.939072-16.893952 10.919936-11.266048 16.380928-24.75008 16.380928-40.451072 0-15.699968-5.460992-29.185024-16.380928-40.450048-10.924032-11.25888-24.233984-16.896-39.940096-16.896z m0 228.356096H227.331072c-15.706112 0-29.01504 5.459968-39.94112 16.37888-10.919936 10.92608-16.37888 24.236032-16.37888 39.94112 0 15.699968 5.45792 29.17888 16.37888 40.444928 10.92608 11.265024 24.235008 16.892928 39.94112 16.892928h569.33888c15.705088 0 29.01504-5.627904 39.939072-16.892928 10.919936-11.266048 16.380928-24.74496 16.380928-40.445952 0-15.705088-5.460992-29.014016-16.380928-39.940096-10.924032-10.919936-24.233984-16.37888-39.940096-16.37888z m0 0" /></svg>