<?xml version="1.0" standalone="no"?><!DOCTYPE svg PUBLIC "-//W3C//DTD SVG 1.1//EN" "http://www.w3.org/Graphics/SVG/1.1/DTD/svg11.dtd"><svg class="icon" width="200px" height="200.00px" viewBox="0 0 1024 1024" version="1.1" xmlns="http://www.w3.org/2000/svg"><path fill="#979797" d="M960 832v42.666667h-46.933333c-4.266667 12.8-8.533333 25.6-17.066667 38.4l34.133333 34.133333-29.866666 29.866667-34.133334-34.133334c-12.8 8.533333-21.333333 12.8-34.133333 12.8v46.933334h-42.666667v-46.933334c-12.8-4.266667-25.6-8.533333-38.4-17.066666l-34.133333 34.133333-29.866667-29.866667 34.133334-34.133333c-8.533333-12.8-12.8-25.6-12.8-38.4h-46.933334v-42.666667h46.933334c4.266667-12.8 8.533333-25.6 17.066666-38.4l-34.133333-34.133333 29.866667-29.866667 34.133333 34.133334c12.8-8.533333 21.333333-12.8 38.4-17.066667v-46.933333h42.666667v46.933333c12.8 4.266667 25.6 8.533333 38.4 17.066667l29.866666-29.866667 29.866667 29.866667-34.133333 34.133333c8.533333 12.8 12.8 25.6 12.8 38.4h46.933333z m-89.6-8.533333l-29.866667-29.866667c-4.266667 0-8.533333-4.266667-8.533333-4.266667v4.266667h-42.666667v-4.266667c-4.266667 0-8.533333 4.266667-12.8 4.266667l-29.866666 29.866667c0 4.266667-4.266667 8.533333-4.266667 12.8h4.266667v42.666666c0 4.266667 4.266667 8.533333 4.266666 8.533334l29.866667 29.866666c4.266667 0 4.266667 4.266667 8.533333 4.266667h42.666667c4.266667 0 8.533333-4.266667 8.533333-4.266667l29.866667-29.866666c0-4.266667 4.266667-4.266667 4.266667-8.533334v-42.666666c0-8.533333 0-12.8-4.266667-12.8zM682.666667 631.466667l64 21.333333c-128 76.8-128 157.866667-128 264.533333h-554.666667v-110.933333c0-89.6 72.533333-110.933333 72.533333-110.933333l200.533334-64 64-34.133334v-72.533333s-51.2-21.333333-51.2-81.066667H341.333333c-34.133333-8.533333-64-59.733333-68.266666-98.133333 0-38.4 29.866667-38.4 29.866666-38.4l25.6 8.533333s-12.8-34.133333-12.8-128c0-42.666667 12.8-64 38.4-81.066666 0 0-38.4-81.066667 157.866667-85.333334 187.733333 0 187.733333 157.866667 187.733333 157.866667v55.466667l-4.266666 72.533333h29.866666c21.333333 0 21.333333 42.666667 21.333334 42.666667s-25.6 89.6-64 93.866666h-8.533334c-8.533333 46.933333-55.466667 81.066667-55.466666 81.066667V597.333333l64 34.133334z" /></svg>